<svg xmlns="http://www.w3.org/2000/svg" width="360" height="356" viewBox="0 0 360 356" version="1.1"><path d="" stroke="none" fill="#f5f5f5" fill-rule="evenodd"/><path d="M 139 67.968 L 139 85 118.500 85 L 98 85 98 100.500 L 98 116 105.750 116.032 L 113.500 116.064 115.500 117.575 L 117.500 119.085 117.772 182.021 L 118.044 244.956 116.022 246.978 L 114 249 106 249 L 98 249 98 264.500 L 98 280 118.476 280 L 138.952 280 139.226 296.750 L 139.500 313.500 151 313.500 L 162.500 313.500 162.774 296.750 L 163.048 280 169.524 280 L 176 280 176 296.393 L 176 312.786 177.582 313.393 L 179.164 314 189.023 314 L 198.882 314 199.533 312.946 L 200.185 311.892 200.049 295.946 L 199.914 280 201.207 279.994 L 202.500 279.988 212.058 278.547 L 221.615 277.107 228.236 274.703 L 234.857 272.300 239.901 269.063 L 244.945 265.827 250.222 260.116 L 255.500 254.406 258.405 248.453 L 261.310 242.500 262.643 237.500 L 263.976 232.500 263.988 223.432 L 264 214.363 262.388 208.932 L 260.777 203.500 258.462 198.927 L 256.146 194.355 251.823 189.688 L 247.500 185.022 241.559 181.511 L 235.618 178 233.809 178 L 232 178 232 177.184 L 232 176.368 235.750 174.246 L 239.500 172.123 244.096 167.311 L 248.692 162.500 250.777 159.443 L 252.862 156.386 254.966 150.943 L 257.070 145.500 257.662 137.500 L 258.254 129.500 257.062 123.781 L 255.871 118.061 252.801 111.918 L 249.731 105.775 244.478 100.522 L 239.225 95.269 233.133 92.224 L 227.041 89.180 219.771 87.604 L 212.500 86.028 206.774 85.445 L 201.048 84.862 200.774 68.181 L 200.500 51.500 188.500 51.500 L 176.500 51.500 176.226 68.250 L 175.952 85 169.500 85 L 163.048 85 162.774 68.250 L 162.500 51.500 150.750 51.218 L 139 50.937 139 67.968 M 196.500 54 L 195.882 55 188.441 55 L 181 55 181 72.500 L 181 90 169.545 90 L 158.089 90 158.107 72.750 L 158.124 55.500 155.312 54.986 L 152.500 54.472 148 54.986 L 143.500 55.500 143.226 72.750 L 142.953 90 122.976 90 L 103 90 103 100.358 L 103 110.715 109.046 111.347 L 115.092 111.979 117.046 113.025 L 119 114.070 120.750 116.741 L 122.500 119.412 122.500 182.554 L 122.500 245.697 121.190 248.146 L 119.879 250.594 117.885 251.840 L 115.890 253.086 109.445 253.687 L 103 254.289 103 265.185 L 103 276.080 123.001 275.790 L 143.002 275.500 143.001 292.250 L 143 309 150.750 309.001 L 158.500 309.002 158.500 292.426 L 158.500 275.850 169.500 275.847 L 180.500 275.844 180.774 292.422 L 181.048 309 188.524 309 L 196 309 196 292 L 196 275 201.390 275 L 206.779 275 215.140 273.417 L 223.500 271.834 228.500 269.748 L 233.500 267.662 239.649 263.352 L 245.798 259.043 249.408 254.125 L 253.019 249.207 255.537 243.513 L 258.055 237.819 259.191 230.512 L 260.327 223.204 259.156 216.113 L 257.985 209.023 255.546 203.508 L 253.107 197.994 248.025 192.620 L 242.943 187.247 236.722 184.276 L 230.500 181.306 224.242 179.492 L 217.985 177.679 226.971 173.408 L 235.957 169.138 241.016 164.079 L 246.076 159.020 248.964 152.912 L 251.852 146.805 252.994 140.035 L 254.136 133.265 252.979 126.882 L 251.822 120.500 249.439 115.463 L 247.056 110.425 243.438 106.199 L 239.821 101.973 235.527 99.018 L 231.233 96.064 223.554 93.486 L 215.876 90.909 205.938 90.303 L 196 89.698 196 72.549 L 196 55.400 197.200 54.200 L 198.400 53 197.759 53 L 197.118 53 196.500 54 M 159.381 141.401 L 159.365 167 172.932 166.980 L 186.500 166.960 193.401 165.963 L 200.302 164.965 205.367 162.233 L 210.433 159.500 213.215 155.500 L 215.997 151.500 217.009 145.968 L 218.021 140.435 217.156 135.803 L 216.290 131.171 213.646 126.660 L 211.003 122.148 205.251 119.324 L 199.500 116.500 179.448 116.151 L 159.397 115.801 159.381 141.401 M 164 140.946 L 164 162.206 180.250 161.801 L 196.500 161.397 200.486 159.651 L 204.473 157.905 206.868 155.702 L 209.264 153.500 211.110 149.500 L 212.956 145.500 212.956 140.500 L 212.956 135.500 211.119 131.500 L 209.282 127.500 207.342 125.776 L 205.401 124.053 201.039 122.514 L 196.677 120.975 180.338 120.330 L 164 119.686 164 140.946 M 159.500 217.474 L 159.754 245.198 161.908 247.349 L 164.063 249.500 179.781 249.455 L 195.500 249.410 201.027 247.742 L 206.554 246.074 210.716 242.511 L 214.878 238.948 217.689 233.224 L 220.500 227.500 220.493 218.500 L 220.486 209.500 218.323 205.447 L 216.160 201.394 212.892 198.198 L 209.623 195.003 204.062 192.861 L 198.500 190.719 178.873 190.234 L 159.246 189.750 159.500 217.474 M 164.014 217.750 L 164.027 240.500 164.656 242.850 L 165.285 245.200 181.393 244.850 L 197.500 244.500 203 241.718 L 208.500 238.937 210.897 235.882 L 213.295 232.827 214.604 229.164 L 215.912 225.500 215.934 218.500 L 215.956 211.500 214.087 207.384 L 212.218 203.268 208.665 200.558 L 205.113 197.849 199.806 196.436 L 194.500 195.024 179.250 195.012 L 164 195 164.014 217.750" stroke="none" fill="#fdf9f3" fill-rule="evenodd"/><path d="M 155 8.109 L 142.500 9.955 133.500 12.504 L 124.500 15.052 114.500 19.046 L 104.500 23.041 95.746 27.770 L 86.993 32.500 77.790 39 L 68.586 45.500 59.269 54.391 L 49.952 63.283 42.985 72.018 L 36.019 80.754 30.643 89.317 L 25.267 97.880 20.665 108.387 L 16.064 118.895 13.557 126.697 L 11.050 134.500 9.442 141.500 L 7.833 148.500 6.556 159.500 L 5.278 170.500 5.526 180.500 L 5.773 190.500 6.505 197.500 L 7.236 204.500 9.084 213.269 L 10.932 222.038 12.866 228.269 L 14.801 234.500 17.979 242.500 L 21.157 250.500 26.075 259.617 L 30.992 268.733 37.225 277.495 L 43.457 286.256 52.316 295.618 L 61.176 304.979 68.838 311.159 L 76.500 317.339 84.639 322.604 L 92.777 327.868 102.139 332.587 L 111.500 337.306 122.764 341.115 L 134.029 344.925 141.764 346.570 L 149.500 348.215 160 349.486 L 170.500 350.757 180 350.770 L 189.500 350.782 201 349.380 L 212.500 347.978 222.904 345.398 L 233.308 342.817 241.976 339.509 L 250.644 336.201 259.072 331.981 L 267.500 327.761 276 322.240 L 284.500 316.719 291.568 310.944 L 298.636 305.169 308.347 294.956 L 318.059 284.742 325.087 274.231 L 332.116 263.719 335.560 256.881 L 339.004 250.042 342.111 242.271 L 345.218 234.500 347.515 226.887 L 349.812 219.275 351.364 211.387 L 352.916 203.500 354.063 191.835 L 355.211 180.169 354.061 166.361 L 352.911 152.553 350.850 143.026 L 348.788 133.500 345.787 124.500 L 342.785 115.500 337.846 105 L 332.906 94.500 325.204 83 L 317.502 71.500 304.501 58.463 L 291.500 45.427 282 38.712 L 272.500 31.997 260 25.618 L 247.500 19.239 237 15.719 L 226.500 12.200 216.500 10.176 L 206.500 8.152 201.500 7.474 L 196.500 6.796 182 6.529 L 167.500 6.262 155 8.109 M 156.484 13.532 L 147.467 14.849 138.484 17.052 L 129.500 19.254 122 22.040 L 114.500 24.827 109.500 27.058 L 104.500 29.290 95.753 34.207 L 87.006 39.124 78.829 45.187 L 70.652 51.249 61.206 60.375 L 51.760 69.500 43.865 80 L 35.970 90.500 28.988 104.500 L 22.006 118.500 19.131 127.500 L 16.257 136.500 13.888 148 L 11.518 159.500 11.518 178.500 L 11.518 197.500 13.888 209 L 16.257 220.500 19.131 229.500 L 22.006 238.500 28.988 252.500 L 35.970 266.500 43.865 277 L 51.760 287.500 61.206 296.625 L 70.652 305.751 78.829 311.813 L 87.006 317.876 95.753 322.793 L 104.500 327.710 109.500 329.942 L 114.500 332.173 122 334.960 L 129.500 337.746 138.313 339.906 L 147.126 342.067 157.313 343.515 L 167.500 344.963 180 344.963 L 192.500 344.963 202.687 343.515 L 212.874 342.067 221.687 339.906 L 230.500 337.746 238 334.960 L 245.500 332.174 251.500 329.494 L 257.500 326.813 266.516 321.512 L 275.531 316.210 284.516 309.254 L 293.500 302.298 303 292.338 L 312.500 282.378 318.312 274.241 L 324.123 266.104 329.487 255.802 L 334.851 245.500 337.955 237.651 L 341.058 229.802 343.589 220.151 L 346.120 210.500 347.540 200 L 348.961 189.500 348.978 179 L 348.994 168.500 347.910 159.500 L 346.825 150.500 344.958 142.407 L 343.091 134.314 340.507 126.407 L 337.923 118.500 331.002 104.500 L 324.081 90.500 316.964 81 L 309.847 71.500 301.674 63.150 L 293.500 54.800 284.516 47.795 L 275.531 40.790 266.516 35.488 L 257.500 30.187 251.500 27.506 L 245.500 24.826 238 22.040 L 230.500 19.254 221.687 17.094 L 212.874 14.933 202.687 13.485 L 192.500 12.037 179 12.126 L 165.500 12.215 156.484 13.532 M 144 73 L 144 90 124 90 L 104 90 104 100.384 L 104 110.767 110.632 111.189 L 117.264 111.612 120.132 114.822 L 123 118.032 123 182.616 L 123 247.200 119.701 250.499 L 116.402 253.798 109.951 254.486 L 103.500 255.175 103.816 265.087 L 104.133 275 124.066 275 L 144 275 144 292 L 144 309 151 309 L 158 309 158 292 L 158 275 169.500 275 L 181 275 181 291.500 L 181 308 188 308 L 195 308 195 291.561 L 195 275.123 199.750 274.549 L 204.500 273.975 214.110 272.537 L 223.720 271.098 229.568 268.512 L 235.416 265.926 240.597 262.014 L 245.778 258.103 250.280 251.301 L 254.782 244.500 256.484 239.500 L 258.187 234.500 258.718 227 L 259.249 219.500 258.060 213.781 L 256.871 208.061 253.917 202.150 L 250.964 196.240 245.952 191.551 L 240.939 186.863 235.676 184.535 L 230.412 182.207 222.956 179.972 L 215.500 177.736 218 176.682 L 220.500 175.629 227.961 172.169 L 235.422 168.709 240.499 163.604 L 245.577 158.500 247.828 153.677 L 250.079 148.854 251.655 142.703 L 253.230 136.552 252.582 130.225 L 251.934 123.898 249.894 118.447 L 247.855 112.996 243.923 108.021 L 239.990 103.047 234.745 99.498 L 229.500 95.950 223.464 94.074 L 217.429 92.197 211.714 91.599 L 206 91 200.500 90.428 L 195 89.856 195 72.928 L 195 56 188.500 56 L 182 56 182 73 L 182 90 170 90 L 158 90 158 73 L 158 56 151 56 L 144 56 144 73 M 159 141.655 L 159 168.310 176.750 167.689 L 194.500 167.068 199.586 165.544 L 204.673 164.020 208.701 161.101 L 212.730 158.183 215.365 152.895 L 218 147.607 218 140.418 L 218 133.228 215.206 127.880 L 212.412 122.531 207.956 119.806 L 203.500 117.080 197 116.048 L 190.500 115.015 174.750 115.008 L 159 115 159 141.655 M 159 216.707 L 159 244.730 161.073 247.365 L 163.145 250 179.391 250 L 195.637 250 200.657 248.509 L 205.677 247.019 209.046 244.748 L 212.416 242.477 215.681 238.197 L 218.946 233.916 220.215 229.708 L 221.484 225.500 221.448 217.931 L 221.412 210.362 218.630 204.677 L 215.849 198.992 211.296 195.860 L 206.743 192.727 202.121 191.330 L 197.500 189.933 178.250 189.309 L 159 188.684 159 216.707" stroke="none" fill="#ff9901" fill-rule="evenodd"/><path d="M 155 8.109 L 142.500 9.955 133.500 12.504 L 124.500 15.052 114.500 19.046 L 104.500 23.041 95.746 27.770 L 86.993 32.500 77.790 39 L 68.586 45.500 59.269 54.391 L 49.952 63.283 42.985 72.018 L 36.019 80.754 30.643 89.317 L 25.267 97.880 20.665 108.387 L 16.064 118.895 13.557 126.697 L 11.050 134.500 9.442 141.500 L 7.833 148.500 6.556 159.500 L 5.278 170.500 5.526 180.500 L 5.773 190.500 6.505 197.500 L 7.236 204.500 9.084 213.269 L 10.932 222.038 12.866 228.269 L 14.801 234.500 17.979 242.500 L 21.157 250.500 26.075 259.617 L 30.992 268.733 37.225 277.495 L 43.457 286.256 52.316 295.618 L 61.176 304.979 68.838 311.159 L 76.500 317.339 84.639 322.604 L 92.777 327.868 102.139 332.587 L 111.500 337.306 122.764 341.115 L 134.029 344.925 141.764 346.570 L 149.500 348.215 160 349.486 L 170.500 350.757 180 350.770 L 189.500 350.782 201 349.380 L 212.500 347.978 222.904 345.398 L 233.308 342.817 241.976 339.509 L 250.644 336.201 259.072 331.981 L 267.500 327.761 276 322.240 L 284.500 316.719 291.568 310.944 L 298.636 305.169 308.347 294.956 L 318.059 284.742 325.087 274.231 L 332.116 263.719 335.560 256.881 L 339.004 250.042 342.111 242.271 L 345.218 234.500 347.515 226.887 L 349.812 219.275 351.364 211.387 L 352.916 203.500 354.063 191.835 L 355.211 180.169 354.061 166.361 L 352.911 152.553 350.850 143.026 L 348.788 133.500 345.787 124.500 L 342.785 115.500 337.846 105 L 332.906 94.500 325.204 83 L 317.502 71.500 304.501 58.463 L 291.500 45.427 282 38.712 L 272.500 31.997 260 25.618 L 247.500 19.239 237 15.719 L 226.500 12.200 216.500 10.176 L 206.500 8.152 201.500 7.474 L 196.500 6.796 182 6.529 L 167.500 6.262 155 8.109 M 156.484 13.532 L 147.467 14.849 138.484 17.052 L 129.500 19.254 122 22.040 L 114.500 24.827 109.500 27.058 L 104.500 29.290 95.753 34.207 L 87.006 39.124 78.829 45.187 L 70.652 51.249 61.206 60.375 L 51.760 69.500 43.865 80 L 35.970 90.500 28.988 104.500 L 22.006 118.500 19.131 127.500 L 16.257 136.500 13.888 148 L 11.518 159.500 11.518 178.500 L 11.518 197.500 13.888 209 L 16.257 220.500 19.131 229.500 L 22.006 238.500 28.988 252.500 L 35.970 266.500 43.865 277 L 51.760 287.500 61.206 296.625 L 70.652 305.751 78.829 311.813 L 87.006 317.876 95.753 322.793 L 104.500 327.710 109.500 329.942 L 114.500 332.173 122 334.960 L 129.500 337.746 138.313 339.906 L 147.126 342.067 157.313 343.515 L 167.500 344.963 180 344.963 L 192.500 344.963 202.687 343.515 L 212.874 342.067 221.687 339.906 L 230.500 337.746 238 334.960 L 245.500 332.174 251.500 329.494 L 257.500 326.813 266.516 321.512 L 275.531 316.210 284.516 309.254 L 293.500 302.298 303 292.338 L 312.500 282.378 318.312 274.241 L 324.123 266.104 329.487 255.802 L 334.851 245.500 337.955 237.651 L 341.058 229.802 343.589 220.151 L 346.120 210.500 347.540 200 L 348.961 189.500 348.978 179 L 348.994 168.500 347.910 159.500 L 346.825 150.500 344.958 142.407 L 343.091 134.314 340.507 126.407 L 337.923 118.500 331.002 104.500 L 324.081 90.500 316.964 81 L 309.847 71.500 301.674 63.150 L 293.500 54.800 284.516 47.795 L 275.531 40.790 266.516 35.488 L 257.500 30.187 251.500 27.506 L 245.500 24.826 238 22.040 L 230.500 19.254 221.687 17.094 L 212.874 14.933 202.687 13.485 L 192.500 12.037 179 12.126 L 165.500 12.215 156.484 13.532 M 144 73 L 144 90 124 90 L 104 90 104 100.384 L 104 110.767 110.632 111.189 L 117.264 111.612 120.132 114.822 L 123 118.032 123 182.616 L 123 247.200 119.701 250.499 L 116.402 253.798 109.951 254.486 L 103.500 255.175 103.816 265.087 L 104.133 275 124.066 275 L 144 275 144 292 L 144 309 151 309 L 158 309 158 292 L 158 275 169.500 275 L 181 275 181 291.500 L 181 308 188 308 L 195 308 195 291.561 L 195 275.123 199.750 274.549 L 204.500 273.975 214.110 272.537 L 223.720 271.098 229.568 268.512 L 235.416 265.926 240.597 262.014 L 245.778 258.103 250.280 251.301 L 254.782 244.500 256.484 239.500 L 258.187 234.500 258.718 227 L 259.249 219.500 258.060 213.781 L 256.871 208.061 253.917 202.150 L 250.964 196.240 245.952 191.551 L 240.939 186.863 235.676 184.535 L 230.412 182.207 222.956 179.972 L 215.500 177.736 218 176.682 L 220.500 175.629 227.961 172.169 L 235.422 168.709 240.499 163.604 L 245.577 158.500 247.828 153.677 L 250.079 148.854 251.655 142.703 L 253.230 136.552 252.582 130.225 L 251.934 123.898 249.894 118.447 L 247.855 112.996 243.923 108.021 L 239.990 103.047 234.745 99.498 L 229.500 95.950 223.464 94.074 L 217.429 92.197 211.714 91.599 L 206 91 200.500 90.428 L 195 89.856 195 72.928 L 195 56 188.500 56 L 182 56 182 73 L 182 90 170 90 L 158 90 158 73 L 158 56 151 56 L 144 56 144 73 M 159 141.655 L 159 168.310 176.750 167.689 L 194.500 167.068 199.586 165.544 L 204.673 164.020 208.701 161.101 L 212.730 158.183 215.365 152.895 L 218 147.607 218 140.418 L 218 133.228 215.206 127.880 L 212.412 122.531 207.956 119.806 L 203.500 117.080 197 116.048 L 190.500 115.015 174.750 115.008 L 159 115 159 141.655 M 159 216.707 L 159 244.730 161.073 247.365 L 163.145 250 179.391 250 L 195.637 250 200.657 248.509 L 205.677 247.019 209.046 244.748 L 212.416 242.477 215.681 238.197 L 218.946 233.916 220.215 229.708 L 221.484 225.500 221.448 217.931 L 221.412 210.362 218.630 204.677 L 215.849 198.992 211.296 195.860 L 206.743 192.727 202.121 191.330 L 197.500 189.933 178.250 189.309 L 159 188.684 159 216.707" stroke="none" fill="#ff9901" fill-rule="evenodd"/><path d="M 161.500 13.105 L 154.500 13.958 148 15.107 L 141.500 16.256 130.022 19.700 L 118.544 23.145 107.095 28.587 L 95.647 34.029 86.073 40.453 L 76.500 46.878 68.380 53.854 L 60.260 60.830 53.357 68.665 L 46.455 76.500 41.843 83 L 37.230 89.500 32.098 98.488 L 26.965 107.476 23.008 117.598 L 19.050 127.720 16.469 137.930 L 13.888 148.141 12.444 159.782 L 11 171.424 11 178.500 L 11 185.576 12.444 197.218 L 13.888 208.859 16.469 219.070 L 19.050 229.280 23.008 239.402 L 26.965 249.524 32.093 258.512 L 37.221 267.500 42.793 275.280 L 48.365 283.060 55.669 290.922 L 62.973 298.784 72.236 306.279 L 81.500 313.773 88.873 318.514 L 96.246 323.256 107.373 328.524 L 118.500 333.792 127 336.464 L 135.500 339.135 141.777 340.596 L 148.055 342.056 159.214 343.528 L 170.373 345 179.466 345 L 188.560 345 200.665 343.501 L 212.771 342.003 222.140 339.568 L 231.509 337.134 239.005 334.462 L 246.500 331.790 258 325.865 L 269.500 319.940 278.174 313.720 L 286.848 307.500 293.511 301.608 L 300.174 295.717 307.704 287.108 L 315.234 278.500 321.203 269.500 L 327.172 260.500 332.504 249.500 L 337.836 238.500 340.898 228.500 L 343.960 218.500 345.431 211.418 L 346.902 204.336 348.142 191.094 L 349.382 177.852 348.125 165.177 L 346.868 152.501 345.414 145.501 L 343.960 138.500 340.878 128.515 L 337.796 118.531 333.572 109.515 L 329.348 100.500 323.739 91.500 L 318.130 82.500 311.517 74.278 L 304.904 66.055 296.202 57.988 L 287.500 49.920 278.500 43.490 L 269.500 37.060 258 31.135 L 246.500 25.210 239.005 22.538 L 231.509 19.866 222.140 17.432 L 212.771 14.997 200.665 13.499 L 188.560 12 178.530 12.126 L 168.500 12.253 161.500 13.105 M 139.250 50.662 L 138 51.167 138 67.563 L 138 83.959 117.750 84.229 L 97.500 84.500 97.225 100.750 L 96.950 117 105.404 117 L 113.857 117 115.429 118.571 L 117 120.143 117 182.380 L 117 244.618 115.750 246.281 L 114.500 247.944 106 248.222 L 97.500 248.500 97.225 264.750 L 96.950 281 117.475 281 L 138 281 138 296.800 L 138 312.600 139.200 313.800 L 140.400 315 151 315 L 161.600 315 162.800 313.800 L 164 312.600 164 296.800 L 164 281 169.475 281 L 174.950 281 175.225 297.250 L 175.500 313.500 188 313.500 L 200.500 313.500 201 297.041 L 201.500 280.581 211 279.388 L 220.500 278.194 227 276.009 L 233.500 273.824 239.157 270.396 L 244.814 266.968 250.439 260.893 L 256.063 254.818 258.960 249.079 L 261.857 243.340 263.429 237.276 L 265 231.211 264.988 223.356 L 264.976 215.500 263.547 210.131 L 262.118 204.762 259.437 199.282 L 256.756 193.801 251.128 188.114 L 245.500 182.428 239.333 179.537 L 233.165 176.647 237.333 173.987 L 241.500 171.327 245.796 166.914 L 250.092 162.500 253.651 155.345 L 257.210 148.191 258.306 140.581 L 259.402 132.972 258.190 125.736 L 256.977 118.500 253.738 112.013 L 250.500 105.526 244.904 100.001 L 239.309 94.476 233.611 91.686 L 227.914 88.896 220.297 86.948 L 212.680 85 208.922 85 L 205.164 85 203.582 84.393 L 202 83.786 202 68.015 L 202 52.245 200.607 51.089 L 199.214 49.932 187.857 50.216 L 176.500 50.500 176.226 67.250 L 175.952 84 169.976 84 L 164 84 164 68.200 L 164 52.400 162.800 51.200 L 161.600 50 151.050 50.079 L 140.500 50.158 139.250 50.662 M 165 140.938 L 165 161.172 181.250 160.828 L 197.500 160.484 201 158.625 L 204.500 156.766 206.837 154.633 L 209.175 152.500 210.587 149.128 L 212 145.756 211.984 140.128 L 211.967 134.500 209.734 130.500 L 207.500 126.500 202.757 124.147 L 198.014 121.795 181.507 121.249 L 165 120.704 165 140.938 M 165.232 219.750 L 165.500 243.500 179 243.816 L 192.500 244.132 197.882 242.965 L 203.265 241.797 207.580 237.820 L 211.895 233.842 213.607 229.359 L 215.319 224.875 215.394 219.188 L 215.469 213.500 213.662 208.778 L 211.856 204.057 208.881 201.553 L 205.905 199.049 200.771 197.525 L 195.637 196 180.300 196 L 164.964 196 165.232 219.750" stroke="none" fill="#000000" fill-rule="evenodd"/><path d="M 155 8.109 L 142.500 9.955 133.500 12.504 L 124.500 15.052 114.500 19.046 L 104.500 23.041 95.746 27.770 L 86.993 32.500 77.790 39 L 68.586 45.500 59.269 54.391 L 49.952 63.283 42.985 72.018 L 36.019 80.754 30.643 89.317 L 25.267 97.880 20.665 108.387 L 16.064 118.895 13.557 126.697 L 11.050 134.500 9.442 141.500 L 7.833 148.500 6.556 159.500 L 5.278 170.500 5.526 180.500 L 5.773 190.500 6.505 197.500 L 7.236 204.500 9.084 213.269 L 10.932 222.038 12.866 228.269 L 14.801 234.500 17.979 242.500 L 21.157 250.500 26.075 259.617 L 30.992 268.733 37.225 277.495 L 43.457 286.256 52.316 295.618 L 61.176 304.979 68.838 311.159 L 76.500 317.339 84.639 322.604 L 92.777 327.868 102.139 332.587 L 111.500 337.306 122.764 341.115 L 134.029 344.925 141.764 346.570 L 149.500 348.215 160 349.486 L 170.500 350.757 180 350.770 L 189.500 350.782 201 349.380 L 212.500 347.978 222.904 345.398 L 233.308 342.817 241.976 339.509 L 250.644 336.201 259.072 331.981 L 267.500 327.761 276 322.240 L 284.500 316.719 291.568 310.944 L 298.636 305.169 308.347 294.956 L 318.059 284.742 325.087 274.231 L 332.116 263.719 335.560 256.881 L 339.004 250.042 342.111 242.271 L 345.218 234.500 347.515 226.887 L 349.812 219.275 351.364 211.387 L 352.916 203.500 354.063 191.835 L 355.211 180.169 354.061 166.361 L 352.911 152.553 350.850 143.026 L 348.788 133.500 345.787 124.500 L 342.785 115.500 337.846 105 L 332.906 94.500 325.204 83 L 317.502 71.500 304.501 58.463 L 291.500 45.427 282 38.712 L 272.500 31.997 260 25.618 L 247.500 19.239 237 15.719 L 226.500 12.200 216.500 10.176 L 206.500 8.152 201.500 7.474 L 196.500 6.796 182 6.529 L 167.500 6.262 155 8.109 M 156.484 13.532 L 147.467 14.849 138.484 17.052 L 129.500 19.254 122 22.040 L 114.500 24.827 109.500 27.058 L 104.500 29.290 95.753 34.207 L 87.006 39.124 78.829 45.187 L 70.652 51.249 61.206 60.375 L 51.760 69.500 43.865 80 L 35.970 90.500 28.988 104.500 L 22.006 118.500 19.131 127.500 L 16.257 136.500 13.888 148 L 11.518 159.500 11.518 178.500 L 11.518 197.500 13.888 209 L 16.257 220.500 19.131 229.500 L 22.006 238.500 28.988 252.500 L 35.970 266.500 43.865 277 L 51.760 287.500 61.206 296.625 L 70.652 305.751 78.829 311.813 L 87.006 317.876 95.753 322.793 L 104.500 327.710 109.500 329.942 L 114.500 332.173 122 334.960 L 129.500 337.746 138.313 339.906 L 147.126 342.067 157.313 343.515 L 167.500 344.963 180 344.963 L 192.500 344.963 202.687 343.515 L 212.874 342.067 221.687 339.906 L 230.500 337.746 238 334.960 L 245.500 332.174 251.500 329.494 L 257.500 326.813 266.516 321.512 L 275.531 316.210 284.516 309.254 L 293.500 302.298 303 292.338 L 312.500 282.378 318.312 274.241 L 324.123 266.104 329.487 255.802 L 334.851 245.500 337.955 237.651 L 341.058 229.802 343.589 220.151 L 346.120 210.500 347.540 200 L 348.961 189.500 348.978 179 L 348.994 168.500 347.910 159.500 L 346.825 150.500 344.958 142.407 L 343.091 134.314 340.507 126.407 L 337.923 118.500 331.002 104.500 L 324.081 90.500 316.964 81 L 309.847 71.500 301.674 63.150 L 293.500 54.800 284.516 47.795 L 275.531 40.790 266.516 35.488 L 257.500 30.187 251.500 27.506 L 245.500 24.826 238 22.040 L 230.500 19.254 221.687 17.094 L 212.874 14.933 202.687 13.485 L 192.500 12.037 179 12.126 L 165.500 12.215 156.484 13.532 M 144 73 L 144 90 124 90 L 104 90 104 100.384 L 104 110.767 110.632 111.189 L 117.264 111.612 120.132 114.822 L 123 118.032 123 182.616 L 123 247.200 119.701 250.499 L 116.402 253.798 109.951 254.486 L 103.500 255.175 103.816 265.087 L 104.133 275 124.066 275 L 144 275 144 292 L 144 309 151 309 L 158 309 158 292 L 158 275 169.500 275 L 181 275 181 291.500 L 181 308 188 308 L 195 308 195 291.561 L 195 275.123 199.750 274.549 L 204.500 273.975 214.110 272.537 L 223.720 271.098 229.568 268.512 L 235.416 265.926 240.597 262.014 L 245.778 258.103 250.280 251.301 L 254.782 244.500 256.484 239.500 L 258.187 234.500 258.718 227 L 259.249 219.500 258.060 213.781 L 256.871 208.061 253.917 202.150 L 250.964 196.240 245.952 191.551 L 240.939 186.863 235.676 184.535 L 230.412 182.207 222.956 179.972 L 215.500 177.736 218 176.682 L 220.500 175.629 227.961 172.169 L 235.422 168.709 240.499 163.604 L 245.577 158.500 247.828 153.677 L 250.079 148.854 251.655 142.703 L 253.230 136.552 252.582 130.225 L 251.934 123.898 249.894 118.447 L 247.855 112.996 243.923 108.021 L 239.990 103.047 234.745 99.498 L 229.500 95.950 223.464 94.074 L 217.429 92.197 211.714 91.599 L 206 91 200.500 90.428 L 195 89.856 195 72.928 L 195 56 188.500 56 L 182 56 182 73 L 182 90 170 90 L 158 90 158 73 L 158 56 151 56 L 144 56 144 73 M 159 141.655 L 159 168.310 176.750 167.689 L 194.500 167.068 199.586 165.544 L 204.673 164.020 208.701 161.101 L 212.730 158.183 215.365 152.895 L 218 147.607 218 140.418 L 218 133.228 215.206 127.880 L 212.412 122.531 207.956 119.806 L 203.500 117.080 197 116.048 L 190.500 115.015 174.750 115.008 L 159 115 159 141.655 M 159 216.707 L 159 244.730 161.073 247.365 L 163.145 250 179.391 250 L 195.637 250 200.657 248.509 L 205.677 247.019 209.046 244.748 L 212.416 242.477 215.681 238.197 L 218.946 233.916 220.215 229.708 L 221.484 225.500 221.448 217.931 L 221.412 210.362 218.630 204.677 L 215.849 198.992 211.296 195.860 L 206.743 192.727 202.121 191.330 L 197.500 189.933 178.250 189.309 L 159 188.684 159 216.707" stroke="none" fill="#ff9901" fill-rule="evenodd"/><path d="M 161.500 13.105 L 154.500 13.958 148 15.107 L 141.500 16.256 130.022 19.700 L 118.544 23.145 107.095 28.587 L 95.647 34.029 86.073 40.453 L 76.500 46.878 68.380 53.854 L 60.260 60.830 53.357 68.665 L 46.455 76.500 41.843 83 L 37.230 89.500 32.098 98.488 L 26.965 107.476 23.008 117.598 L 19.050 127.720 16.469 137.930 L 13.888 148.141 12.444 159.782 L 11 171.424 11 178.500 L 11 185.576 12.444 197.218 L 13.888 208.859 16.469 219.070 L 19.050 229.280 23.008 239.402 L 26.965 249.524 32.093 258.512 L 37.221 267.500 42.793 275.280 L 48.365 283.060 55.669 290.922 L 62.973 298.784 72.236 306.279 L 81.500 313.773 88.873 318.514 L 96.246 323.256 107.373 328.524 L 118.500 333.792 127 336.464 L 135.500 339.135 141.777 340.596 L 148.055 342.056 159.214 343.528 L 170.373 345 179.466 345 L 188.560 345 200.665 343.501 L 212.771 342.003 222.140 339.568 L 231.509 337.134 239.005 334.462 L 246.500 331.790 258 325.865 L 269.500 319.940 278.174 313.720 L 286.848 307.500 293.511 301.608 L 300.174 295.717 307.704 287.108 L 315.234 278.500 321.203 269.500 L 327.172 260.500 332.504 249.500 L 337.836 238.500 340.898 228.500 L 343.960 218.500 345.431 211.418 L 346.902 204.336 348.142 191.094 L 349.382 177.852 348.125 165.177 L 346.868 152.501 345.414 145.501 L 343.960 138.500 340.878 128.515 L 337.796 118.531 333.572 109.515 L 329.348 100.500 323.739 91.500 L 318.130 82.500 311.517 74.278 L 304.904 66.055 296.202 57.988 L 287.500 49.920 278.500 43.490 L 269.500 37.060 258 31.135 L 246.500 25.210 239.005 22.538 L 231.509 19.866 222.140 17.432 L 212.771 14.997 200.665 13.499 L 188.560 12 178.530 12.126 L 168.500 12.253 161.500 13.105 M 139.250 50.662 L 138 51.167 138 67.563 L 138 83.959 117.750 84.229 L 97.500 84.500 97.225 100.750 L 96.950 117 105.404 117 L 113.857 117 115.429 118.571 L 117 120.143 117 182.380 L 117 244.618 115.750 246.281 L 114.500 247.944 106 248.222 L 97.500 248.500 97.225 264.750 L 96.950 281 117.475 281 L 138 281 138 296.800 L 138 312.600 139.200 313.800 L 140.400 315 151 315 L 161.600 315 162.800 313.800 L 164 312.600 164 296.800 L 164 281 169.475 281 L 174.950 281 175.225 297.250 L 175.500 313.500 188 313.500 L 200.500 313.500 201 297.041 L 201.500 280.581 211 279.388 L 220.500 278.194 227 276.009 L 233.500 273.824 239.157 270.396 L 244.814 266.968 250.439 260.893 L 256.063 254.818 258.960 249.079 L 261.857 243.340 263.429 237.276 L 265 231.211 264.988 223.356 L 264.976 215.500 263.547 210.131 L 262.118 204.762 259.437 199.282 L 256.756 193.801 251.128 188.114 L 245.500 182.428 239.333 179.537 L 233.165 176.647 237.333 173.987 L 241.500 171.327 245.796 166.914 L 250.092 162.500 253.651 155.345 L 257.210 148.191 258.306 140.581 L 259.402 132.972 258.190 125.736 L 256.977 118.500 253.738 112.013 L 250.500 105.526 244.904 100.001 L 239.309 94.476 233.611 91.686 L 227.914 88.896 220.297 86.948 L 212.680 85 208.922 85 L 205.164 85 203.582 84.393 L 202 83.786 202 68.015 L 202 52.245 200.607 51.089 L 199.214 49.932 187.857 50.216 L 176.500 50.500 176.226 67.250 L 175.952 84 169.976 84 L 164 84 164 68.200 L 164 52.400 162.800 51.200 L 161.600 50 151.050 50.079 L 140.500 50.158 139.250 50.662 M 165 140.938 L 165 161.172 181.250 160.828 L 197.500 160.484 201 158.625 L 204.500 156.766 206.837 154.633 L 209.175 152.500 210.587 149.128 L 212 145.756 211.984 140.128 L 211.967 134.500 209.734 130.500 L 207.500 126.500 202.757 124.147 L 198.014 121.795 181.507 121.249 L 165 120.704 165 140.938 M 165.232 219.750 L 165.500 243.500 179 243.816 L 192.500 244.132 197.882 242.965 L 203.265 241.797 207.580 237.820 L 211.895 233.842 213.607 229.359 L 215.319 224.875 215.394 219.188 L 215.469 213.500 213.662 208.778 L 211.856 204.057 208.881 201.553 L 205.905 199.049 200.771 197.525 L 195.637 196 180.300 196 L 164.964 196 165.232 219.750" stroke="none" fill="#000000" fill-rule="evenodd"/><path d="M 161.500 13.105 L 154.500 13.958 148 15.107 L 141.500 16.256 130.022 19.700 L 118.544 23.145 107.095 28.587 L 95.647 34.029 86.073 40.453 L 76.500 46.878 68.380 53.854 L 60.260 60.830 53.357 68.665 L 46.455 76.500 41.843 83 L 37.230 89.500 32.098 98.488 L 26.965 107.476 23.008 117.598 L 19.050 127.720 16.469 137.930 L 13.888 148.141 12.444 159.782 L 11 171.424 11 178.500 L 11 185.576 12.444 197.218 L 13.888 208.859 16.469 219.070 L 19.050 229.280 23.008 239.402 L 26.965 249.524 32.093 258.512 L 37.221 267.500 42.793 275.280 L 48.365 283.060 55.669 290.922 L 62.973 298.784 72.236 306.279 L 81.500 313.773 88.873 318.514 L 96.246 323.256 107.373 328.524 L 118.500 333.792 127 336.464 L 135.500 339.135 141.777 340.596 L 148.055 342.056 159.214 343.528 L 170.373 345 179.466 345 L 188.560 345 200.665 343.501 L 212.771 342.003 222.140 339.568 L 231.509 337.134 239.005 334.462 L 246.500 331.790 258 325.865 L 269.500 319.940 278.174 313.720 L 286.848 307.500 293.511 301.608 L 300.174 295.717 307.704 287.108 L 315.234 278.500 321.203 269.500 L 327.172 260.500 332.504 249.500 L 337.836 238.500 340.898 228.500 L 343.960 218.500 345.431 211.418 L 346.902 204.336 348.142 191.094 L 349.382 177.852 348.125 165.177 L 346.868 152.501 345.414 145.501 L 343.960 138.500 340.878 128.515 L 337.796 118.531 333.572 109.515 L 329.348 100.500 323.739 91.500 L 318.130 82.500 311.517 74.278 L 304.904 66.055 296.202 57.988 L 287.500 49.920 278.500 43.490 L 269.500 37.060 258 31.135 L 246.500 25.210 239.005 22.538 L 231.509 19.866 222.140 17.432 L 212.771 14.997 200.665 13.499 L 188.560 12 178.530 12.126 L 168.500 12.253 161.500 13.105 M 139.250 50.662 L 138 51.167 138 67.563 L 138 83.959 117.750 84.229 L 97.500 84.500 97.225 100.750 L 96.950 117 105.404 117 L 113.857 117 115.429 118.571 L 117 120.143 117 182.380 L 117 244.618 115.750 246.281 L 114.500 247.944 106 248.222 L 97.500 248.500 97.225 264.750 L 96.950 281 117.475 281 L 138 281 138 296.800 L 138 312.600 139.200 313.800 L 140.400 315 151 315 L 161.600 315 162.800 313.800 L 164 312.600 164 296.800 L 164 281 169.475 281 L 174.950 281 175.225 297.250 L 175.500 313.500 188 313.500 L 200.500 313.500 201 297.041 L 201.500 280.581 211 279.388 L 220.500 278.194 227 276.009 L 233.500 273.824 239.157 270.396 L 244.814 266.968 250.439 260.893 L 256.063 254.818 258.960 249.079 L 261.857 243.340 263.429 237.276 L 265 231.211 264.988 223.356 L 264.976 215.500 263.547 210.131 L 262.118 204.762 259.437 199.282 L 256.756 193.801 251.128 188.114 L 245.500 182.428 239.333 179.537 L 233.165 176.647 237.333 173.987 L 241.500 171.327 245.796 166.914 L 250.092 162.500 253.651 155.345 L 257.210 148.191 258.306 140.581 L 259.402 132.972 258.190 125.736 L 256.977 118.500 253.738 112.013 L 250.500 105.526 244.904 100.001 L 239.309 94.476 233.611 91.686 L 227.914 88.896 220.297 86.948 L 212.680 85 208.922 85 L 205.164 85 203.582 84.393 L 202 83.786 202 68.015 L 202 52.245 200.607 51.089 L 199.214 49.932 187.857 50.216 L 176.500 50.500 176.226 67.250 L 175.952 84 169.976 84 L 164 84 164 68.200 L 164 52.400 162.800 51.200 L 161.600 50 151.050 50.079 L 140.500 50.158 139.250 50.662 M 165 140.938 L 165 161.172 181.250 160.828 L 197.500 160.484 201 158.625 L 204.500 156.766 206.837 154.633 L 209.175 152.500 210.587 149.128 L 212 145.756 211.984 140.128 L 211.967 134.500 209.734 130.500 L 207.500 126.500 202.757 124.147 L 198.014 121.795 181.507 121.249 L 165 120.704 165 140.938 M 165.232 219.750 L 165.500 243.500 179 243.816 L 192.500 244.132 197.882 242.965 L 203.265 241.797 207.580 237.820 L 211.895 233.842 213.607 229.359 L 215.319 224.875 215.394 219.188 L 215.469 213.500 213.662 208.778 L 211.856 204.057 208.881 201.553 L 205.905 199.049 200.771 197.525 L 195.637 196 180.300 196 L 164.964 196 165.232 219.750" stroke="none" fill="#000000" fill-rule="evenodd"/><path d="" stroke="none" fill="#040404" fill-rule="evenodd"/><path d="M 169.724 1.598 L 168.948 2.385 164.474 2.278 L 160 2.171 160 3.024 L 160 3.877 155.514 3.511 L 151.028 3.146 150.430 4.114 L 149.832 5.081 147.916 4.473 L 146 3.865 146 5.012 L 146 6.159 143 5.500 L 140 4.841 140 5.827 L 140 6.813 138 6.290 L 136 5.767 136 6.790 L 136 7.813 134 7.290 L 132 6.767 132 7.967 L 132 9.167 130.776 8.759 L 129.552 8.351 127.152 9.596 L 124.751 10.842 123.376 10.314 L 122 9.786 122 10.952 L 122 12.118 121 11.500 L 120 10.882 120 12.048 L 120 13.214 118.500 12.638 L 117 12.063 117 13.138 L 117 14.214 115.500 13.638 L 114 13.063 114 14.138 L 114 15.214 112.500 14.638 L 111 14.063 111 15.090 L 111 16.118 110 15.500 L 109 14.882 109 16 L 109 17.118 108 16.500 L 107 15.882 107 16.941 L 107 18 106.250 17.788 L 105.500 17.575 103.250 18.823 L 101 20.070 100.985 19.285 L 100.969 18.500 100.225 19.670 L 99.481 20.840 98.074 21.170 L 96.667 21.500 94.797 23.286 L 92.927 25.073 91.964 24.477 L 91 23.882 91 25.108 L 91 26.333 90.394 25.727 L 89.787 25.120 87.742 27.026 L 85.697 28.931 84.953 28.471 L 84.210 28.011 83.612 29.569 L 83.014 31.127 82.112 30.569 L 81.210 30.011 80.612 31.569 L 80.014 33.127 79.112 32.569 L 78.210 32.011 77.612 33.569 L 77.014 35.127 76.112 34.569 L 75.210 34.011 74.612 35.569 L 74.014 37.127 73.057 36.535 L 72.100 35.944 71 38 L 69.900 40.056 68.994 39.496 L 68.088 38.936 66.429 41.468 L 64.770 44 63.857 44 L 62.944 44 52.751 54.250 L 42.557 64.500 42.772 65.231 L 42.987 65.962 40.502 67.590 L 38.017 69.219 38.540 70.065 L 39.064 70.912 36.540 72.565 L 34.017 74.219 34.572 75.116 L 35.127 76.014 33.569 76.612 L 32.011 77.210 32.569 78.112 L 33.127 79.014 31.569 79.612 L 30.011 80.210 30.569 81.112 L 31.127 82.014 29.569 82.612 L 28.011 83.210 28.500 84 L 28.989 84.790 27.431 85.388 L 25.873 85.986 26.496 86.993 L 27.118 88 26.059 88 L 25 88 25 89.500 L 25 91 23.941 91 L 22.882 91 23.500 92 L 24.118 93 23 93 L 21.882 93 22.500 94 L 23.118 95 22 95 L 20.882 95 21.450 95.919 L 22.018 96.839 20.557 98.300 L 19.095 99.762 19.714 100.381 L 20.333 101 19.108 101 L 17.882 101 18.500 102 L 19.118 103 18 103 L 16.882 103 17.500 104 L 18.118 105 17 105 L 15.882 105 16.500 106 L 17.118 107 16 107 L 14.882 107 15.500 108 L 16.118 109 14.952 109 L 13.786 109 14.362 110.500 L 14.937 112 13.910 112 L 12.882 112 13.500 113 L 14.118 114 12.952 114 L 11.786 114 12.362 115.500 L 12.937 117 12 117 L 11.063 117 11.638 118.500 L 12.214 120 11.048 120 L 9.882 120 10.500 121 L 11.118 122 9.952 122 L 8.786 122 9.324 123.402 L 9.862 124.804 9.181 125.486 L 8.500 126.167 8.375 127.083 L 8.250 128 8.058 128.250 L 7.865 128.500 7.419 131.949 L 6.973 135.399 5.953 136.029 L 4.932 136.660 5.573 138.330 L 6.214 140 5.088 140 L 3.962 140 4.562 142.391 L 5.162 144.782 4.040 145.475 L 2.919 146.168 3.500 148 L 4.081 149.832 2.982 150.511 L 1.883 151.190 2.530 154.136 L 3.177 157.082 2.161 158.306 L 1.146 159.529 1.344 165.265 L 1.542 171 0.787 171 L 0.032 171 0.575 180.250 L 1.119 189.500 1.069 193.409 L 1.019 197.318 2.098 198.618 L 3.177 199.918 2.530 202.864 L 1.883 205.810 2.982 206.489 L 4.081 207.168 3.500 209 L 2.919 210.832 4.040 211.525 L 5.162 212.218 4.562 214.609 L 3.962 217 5.088 217 L 6.214 217 5.573 218.670 L 4.932 220.340 5.993 220.995 L 7.053 221.651 7.277 224.823 L 7.500 227.996 8.357 227.998 L 9.214 228 8.651 229.468 L 8.087 230.936 9 231.500 L 9.913 232.064 9.349 233.532 L 8.786 235 9.952 235 L 11.118 235 10.500 236 L 9.882 237 10.816 237 L 11.750 237 11.750 239.614 L 11.750 242.227 12.960 242.976 L 14.171 243.724 14.085 244.362 L 14 245 14 246.559 L 14 248.118 15.170 247.395 L 16.340 246.672 15.701 248.336 L 15.063 250 16.090 250 L 17.118 250 16.500 251 L 15.882 252 17 252 L 18.118 252 17.500 253 L 16.882 254 18 254 L 19.118 254 18.500 255 L 17.882 256 19 256 L 20.118 256 19.500 257 L 18.882 258 20 258 L 21.118 258 20.500 259 L 19.882 260 21 260 L 22.118 260 21.500 261 L 20.882 262 22 262 L 23.118 262 22.500 263 L 21.882 264 23 264 L 24.118 264 23.500 265 L 22.882 266 23.941 266 L 25 266 25 267.500 L 25 269 26.059 269 L 27.118 269 26.565 269.895 L 26.011 270.790 27.569 271.388 L 29.127 271.986 28.569 272.888 L 28.011 273.790 29.569 274.388 L 31.127 274.986 30.504 275.993 L 29.882 277 30.941 277 L 32 277 32 278.393 L 32 279.786 33.500 280.362 L 35 280.937 35 282.228 L 35 283.519 37.039 284.792 L 39.078 286.065 38.547 286.923 L 38.017 287.781 40.502 289.410 L 42.987 291.038 42.769 291.769 L 42.551 292.500 52.803 302.750 L 63.055 313 63.944 313 L 64.833 313 66.991 315.750 L 69.148 318.500 68.502 317 L 67.855 315.500 70.537 318.500 L 73.219 321.500 72.534 320 L 71.848 318.500 73.924 320.861 L 76 323.222 76.030 322.361 L 76.061 321.500 77.080 323.250 L 78.099 325 79.550 325 L 81 325 81 326 L 81 327 82.500 327 L 84 327 84 328.059 L 84 329.118 85.007 328.496 L 86.014 327.873 86.612 329.431 L 87.210 330.989 88.105 330.435 L 89 329.882 89 331 L 89 332.118 90 331.500 L 91 330.882 91 332.108 L 91 333.333 91.585 332.749 L 92.169 332.164 93.835 333.590 L 95.500 335.016 96 334.860 L 96.500 334.704 101 337.054 L 105.500 339.404 106.250 339.202 L 107 339 107 340.059 L 107 341.118 108 340.500 L 109 339.882 109 341 L 109 342.118 110 341.500 L 111 340.882 111 341.910 L 111 342.937 112.500 342.362 L 114 341.786 114 342.862 L 114 343.937 115.500 343.362 L 117 342.786 117 343.952 L 117 345.118 117.931 344.543 L 118.862 343.967 119.500 345 L 120.138 346.033 121.069 345.457 L 122 344.882 122 345.789 L 122 346.696 125.230 346.787 L 128.460 346.879 128.794 347.883 L 129.129 348.888 130.565 348.337 L 132 347.786 132 348.960 L 132 350.135 133.916 349.527 L 135.832 348.919 136.517 350.027 L 137.202 351.136 138.601 350.600 L 140 350.063 140 351.140 L 140 352.217 142.439 351.605 L 144.877 350.993 145.458 351.933 L 146.039 352.873 147.770 353.008 L 149.500 353.143 154.250 353.062 L 159 352.981 159 353.830 L 159 354.678 162.250 354.818 L 165.500 354.958 177.855 355.473 L 190.210 355.989 191.312 355.307 L 192.415 354.626 197.957 354.250 L 203.500 353.875 206 353.849 L 208.500 353.823 209.623 352.894 L 210.747 351.965 212.373 352.590 L 214 353.214 214 352.180 L 214 351.146 217 351.525 L 220 351.905 220 350.885 L 220 349.865 221.916 350.473 L 223.832 351.081 224.485 350.024 L 225.138 348.967 226.113 349.570 L 227.088 350.172 228.544 348.964 L 230 347.755 230 348.403 L 230 349.051 232.750 347.663 L 235.500 346.274 236.750 346.721 L 238 347.167 238 346.083 L 238 345 238.750 345.118 L 239.500 345.237 240.250 344.993 L 241 344.750 241.750 344.621 L 242.500 344.493 246.750 343.086 L 251 341.680 251 340.781 L 251 339.882 251.882 340.427 L 252.765 340.973 255.132 339.136 L 257.500 337.299 258.889 337.779 L 260.278 338.259 259.580 337.130 L 258.882 336 260.691 335.882 L 262.500 335.763 263.324 335.906 L 264.149 336.050 263.586 335.138 L 263.022 334.227 265.261 333.506 L 267.500 332.784 268.250 332.892 L 269 333 269 331.833 L 269 330.667 269.606 331.273 L 270.213 331.880 272.258 329.974 L 274.303 328.069 275.047 328.529 L 275.790 328.989 276.388 327.431 L 276.986 325.873 277.888 326.431 L 278.790 326.989 279.388 325.431 L 279.986 323.873 280.888 324.431 L 281.790 324.989 282.388 323.431 L 282.986 321.873 284 322.500 L 285.014 323.127 285.612 321.569 L 286.210 320.011 287.036 320.522 L 287.863 321.033 289.432 318.794 L 291 316.555 291.032 317.527 L 291.064 318.500 292.493 316.611 L 293.923 314.723 296.212 313.530 L 298.500 312.336 298.250 311.168 L 298 310 298.750 310.221 L 299.500 310.442 308.775 301.221 L 318.049 292 317.369 292 L 316.689 292 319.344 289.718 L 322 287.436 322 286.340 L 322 285.244 324.250 283.576 L 326.500 281.907 325 282.530 L 323.500 283.152 325.707 281.200 L 327.915 279.248 327.314 278.648 L 326.714 278.047 328.351 277.419 L 329.989 276.790 329.431 275.888 L 328.873 274.986 330.431 274.388 L 331.989 273.790 331.431 272.888 L 330.873 271.986 332.431 271.388 L 333.989 270.790 333.435 269.895 L 332.882 269 334 269 L 335.118 269 334.496 267.993 L 333.873 266.986 335.431 266.388 L 336.989 265.790 336.435 264.895 L 335.882 264 337 264 L 338.118 264 337.500 263 L 336.882 262 338 262 L 339.118 262 338.550 261.081 L 337.982 260.161 339.562 258.581 L 341.143 257 340.503 257 L 339.864 257 341.902 254.137 L 343.941 251.274 343.304 250.637 L 342.667 250 343.892 250 L 345.118 250 344.500 249 L 343.882 248 345.048 248 L 346.214 248 345.638 246.500 L 345.063 245 346.090 245 L 347.118 245 346.500 244 L 345.882 243 347.048 243 L 348.214 243 347.638 241.500 L 347.063 240 348.090 240 L 349.118 240 348.543 239.069 L 347.967 238.138 349 237.500 L 350.033 236.862 349.457 235.931 L 348.882 235 350.058 235 L 351.233 235 350.710 233 L 350.187 231 351.153 231 L 352.118 231 351.543 230.069 L 350.967 229.138 352.052 228.468 L 353.136 227.798 352.600 226.399 L 352.063 225 352.938 225 L 353.813 225 353.290 223 L 352.767 221 353.951 221 L 355.135 221 354.500 219 L 353.865 217 354.952 217 L 356.038 217 355.411 214.500 L 354.783 212 355.911 212 L 357.039 212 356.589 209.516 L 356.138 207.033 357.064 206.460 L 357.990 205.888 357.970 202.694 L 357.951 199.500 358.379 194 L 358.806 188.500 359.181 187 L 359.556 185.500 360.119 184.500 L 360.683 183.500 360.923 178.109 L 361.163 172.719 360.021 172.013 L 358.878 171.307 358.689 165.154 L 358.500 159.002 357.892 159.001 L 357.284 159 357.194 154.750 L 357.104 150.500 356.478 147.500 L 355.852 144.500 355.555 142 L 355.258 139.500 355.014 139 L 354.769 138.500 354.630 137.500 L 354.491 136.500 353.146 134.129 L 351.800 131.759 353.150 132.571 L 354.500 133.384 353.128 131.692 L 351.755 130 352.401 130 L 353.046 130 351.437 127.544 L 349.828 125.088 350.500 124 L 351.172 122.912 350.036 121.543 L 348.899 120.173 348.391 117.337 L 347.882 114.500 346.935 114.165 L 345.988 113.829 346.553 112.915 L 347.118 112 346.090 112 L 345.063 112 345.638 110.500 L 346.214 109 345.048 109 L 343.882 109 344.500 108 L 345.118 107 344 107 L 342.882 107 343.430 106.113 L 343.978 105.227 342.500 104 L 341.022 102.773 341.500 102 L 341.978 101.227 340.500 100 L 339.022 98.773 339.570 97.887 L 340.118 97 338.892 97 L 337.667 97 338.318 96.349 L 338.969 95.698 337.234 94.275 L 335.500 92.852 336.739 93.478 L 337.977 94.104 337.411 92.629 L 336.845 91.155 335.359 90.584 L 333.873 90.014 334.473 89.044 L 335.073 88.073 333.036 86.036 L 331 84 331.750 83.970 L 332.500 83.939 330.729 82.908 L 328.958 81.877 329.538 80.939 L 330.118 80 329.059 80 L 328 80 328 78.500 L 328 77 327 77 L 326 77 326 75.894 L 326 74.788 323.447 72.780 L 320.895 70.772 321.413 70.253 L 321.932 69.734 319.485 67.810 L 317.038 65.885 317.251 65.192 L 317.463 64.500 306.667 53.750 L 295.871 43 295.042 43 L 294.214 43 293.633 41.485 L 293.051 39.970 290.526 39.010 L 288 38.050 288 36.966 L 288 35.882 287.105 36.435 L 286.210 36.989 285.612 35.431 L 285.014 33.873 284 34.500 L 282.986 35.127 282.388 33.569 L 281.790 32.011 280.888 32.569 L 279.986 33.127 279.388 31.569 L 278.790 30.011 277.888 30.569 L 276.986 31.127 276.388 29.569 L 275.790 28.011 275 28.500 L 274.210 28.989 273.612 27.431 L 273.014 25.873 272.007 26.496 L 271 27.118 271 26 L 271 24.882 270 25.500 L 269 26.118 269 25 L 269 23.882 268.060 24.463 L 267.119 25.044 265.136 22.916 L 263.153 20.787 262.138 21.415 L 261.123 22.042 260.245 20.473 L 259.366 18.903 257.183 18.739 L 255 18.574 255 17.728 L 255 16.882 254 17.500 L 253 18.118 253 17 L 253 15.882 252 16.500 L 251 17.118 251 15.952 L 251 14.786 249.500 15.362 L 248 15.937 248 14.910 L 248 13.882 247 14.500 L 246 15.118 246 13.952 L 246 12.786 244.500 13.362 L 243 13.937 243 13 L 243 12.063 241.500 12.638 L 240 13.214 240 12.048 L 240 10.882 239 11.500 L 238 12.118 238 11.226 L 238 10.333 234.806 10.333 L 231.611 10.333 231.241 9.223 L 230.871 8.112 229.435 8.663 L 228 9.214 228 8.087 L 228 6.961 225.558 7.404 L 223.116 7.847 222.786 6.858 L 222.457 5.870 218.478 5.372 L 214.500 4.874 211.750 4.729 L 209 4.584 209 3.773 L 209 2.962 206.502 3.589 L 204.004 4.216 202.252 3.459 L 200.500 2.702 197 2.388 L 193.500 2.073 182 1.442 L 170.500 0.811 169.724 1.598 M 155 8.109 L 142.500 9.955 133.500 12.504 L 124.500 15.052 114.500 19.046 L 104.500 23.041 95.746 27.770 L 86.993 32.500 77.790 39 L 68.586 45.500 59.269 54.391 L 49.952 63.283 42.985 72.018 L 36.019 80.754 30.643 89.317 L 25.267 97.880 20.665 108.387 L 16.064 118.895 13.557 126.697 L 11.050 134.500 9.442 141.500 L 7.833 148.500 6.556 159.500 L 5.278 170.500 5.526 180.500 L 5.773 190.500 6.505 197.500 L 7.236 204.500 9.084 213.269 L 10.932 222.038 12.866 228.269 L 14.801 234.500 17.979 242.500 L 21.157 250.500 26.075 259.617 L 30.992 268.733 37.225 277.495 L 43.457 286.256 52.316 295.618 L 61.176 304.979 68.838 311.159 L 76.500 317.339 84.645 322.608 L 92.790 327.877 102.645 332.809 L 112.500 337.742 123.500 341.372 L 134.500 345.003 143.500 346.901 L 152.500 348.799 160.500 349.533 L 168.500 350.266 169.721 350.437 L 170.942 350.609 171.503 351.170 L 172.064 351.730 174.782 351.466 L 177.500 351.202 187.592 350.575 L 197.684 349.949 207.592 348.462 L 217.500 346.976 226.500 344.511 L 235.500 342.047 243.136 339.091 L 250.773 336.136 259.136 331.949 L 267.500 327.761 276 322.240 L 284.500 316.719 291.568 310.944 L 298.636 305.169 308.347 294.956 L 318.059 284.742 325.087 274.231 L 332.116 263.719 335.560 256.881 L 339.004 250.042 342.111 242.271 L 345.218 234.500 347.515 226.887 L 349.812 219.275 351.364 211.387 L 352.916 203.500 354.063 191.835 L 355.211 180.169 354.061 166.361 L 352.911 152.553 350.850 143.026 L 348.788 133.500 345.787 124.500 L 342.785 115.500 337.846 105 L 332.906 94.500 325.204 83 L 317.502 71.500 304.501 58.463 L 291.500 45.427 282 38.712 L 272.500 31.997 260 25.618 L 247.500 19.239 237 15.719 L 226.500 12.200 216.500 10.176 L 206.500 8.152 201.500 7.474 L 196.500 6.796 182 6.529 L 167.500 6.262 155 8.109 M 117.469 182.500 L 117.469 241.500 117.750 211.678 L 118.030 181.857 117.749 152.678 L 117.469 123.500 117.469 182.500" stroke="none" fill="#f2af46" fill-rule="evenodd"/></svg>